<svg xmlns="http://www.w3.org/2000/svg" viewBox="0 0 500 500"><defs><style>.cls-1{fill:#ff7537;}</style></defs><g id="Presentation"><path class="cls-1" d="M340.87,283.77a169.67,169.67,0,0,0-187,0,179.19,179.19,0,0,0-28.21,23.07c7.21,10.65,13.6,21.32,21,32,25.75-27.81,62.37-44.82,100.67-44.81s75,17,100.71,44.82c7.45-10.72,13.28-20.25,21-32.05A179.72,179.72,0,0,0,340.87,283.77Z"/><path class="cls-1" d="M104.76,263.56q7.41-5.61,15-10.64c38.9-25.48,82.36-39,127.57-39s88.65,13.5,127.55,39q7.36,4.83,14.49,10.23c3.88-10.24,8.86-23.88,10.86-31.56,5.6-21.5,3.54-42.89,3.54-42.89-1.31-6.94-2.32-13.55-5-20.35-16.09-42-47.05-78.66-64.54-91.86a96.54,96.54,0,0,1,0,14.53c-1.18,19.71-6.31,39.26-16.78,55-3.71,5.57-7.09,10.42-11.12,16.19a76.85,76.85,0,0,0-6.33-38.23c-8.51-18.76-24.26-32.15-32.87-50.86a74.19,74.19,0,0,1-6.42-25.91C259.65,30.54,263.62,13.38,272.29,0,162,34.71,129,93.6,113.37,122.75,79.76,185.49,104.76,263.56,104.76,263.56Z"/><path class="cls-1" d="M247.37,333.75c-34.07,0-61.69,25.9-61.69,57.86S247.37,500,247.37,500s61.68-76.43,61.68-108.39S281.43,333.75,247.37,333.75Zm0,83.12A26.59,26.59,0,1,1,274,390.28,26.59,26.59,0,0,1,247.37,416.87Z"/></g></svg>